@startuml
title 基于GitHub的实验管理平台--类图
class users {
    <b>user_id</b> （用户ID）
    name （用户真实姓名）
    github_username （用户GitHub账号）
    update_date （用户GitHub账号修改日期）
    password （用户密码）
    disable （用户是否禁用）
}
class teachers{
    <b>teacher_id</b> （老师工号）
    department （老师所属部门）
}
class course{
    <b>course_id</b> （课程编号）
    course_name （课程名）
    semester （上课学期）
    tid（任课老师）
    num（选课人数）
}


class tcourse{
    <b>id</b> （编号）
    <b>course_id</b> （课程编号）
    <b>teacher_id</b> （教师编号）
}

class scourse{
    <b>id</b> （编号）
    <b>course_id</b> （课程编号）
    <b>student_id</b> （学生编号）
}
class students{
    <b>student_id</b> （学号）
    class （班级）
    result_sum（成绩汇总）
    web_sum （网站正确与否汇总）
}
users <|- students
users <|-- teachers
class grades {
    <b>student_id</b> （学号）
    <b>course_id</b> （实验编号）
    experiment（实验成绩）
    usual（平时成绩）
    result_sum （总成绩）
}
class exgrades {
    <b>student_id</b> （学号）
    <b>test_id</b> （实验编号）
    result（实验成绩）
    web_sum（网址是否正确）
}

class itemofscore{
    <b>student_id</b> （学号）
    <b>test_id</b> （实验编号）
    <b>item_id</b> （实验评分项编号）
    result（评分项成绩）
    MEMO（老师对实验的评价）
    UPDATE_DATE （实验更新日期）
}

class EXITEM {
    <b>test_id</b> （实验编号）
    <b>item_id</b> （评分项编号）
}
class ITEM {
    <b>id</b> （评分项编号）
    title （评分项名称）
    ratio （该评分项所占比例）
    description （评分项描述）
}

class tests {
    <b>test_id</b> （实验编号）
    title (实验名称)
    course_id (实验所属课程)
    semester (学期)
}

students "1" -- "n"  grades
tests "1" -- "n"  grades
teachers "1" -- "n"  course
students "m" -- "n"  course
course "m" -- "n"  tests
students "1" -- "1"  exgrades
tests "1" -- "n"  itemofscore
tests "1" -- "n"  ITEM
@enduml